# xmcd
#
# Track frame offsets: 
#        150
#        10753
#        25557
#        43155
#        61545
#        83872
#        106372
#        122183
#        140105
#        156755
#        172919
#        211539
#
# Disc length: 3086 seconds
#
# Revision: 1
# Processed by: cddbd v1.5.2PL0 Copyright (c) Steve Scherf et al.
# Submitted via: ExactAudioCopyFreeDBPlugin 1.0
#
DISCID=8f0c0c0c
DTITLE=Konna - Sei7semän
DYEAR=2010
DGENRE=Rap
TTITLE0=Sei7semän
TTITLE1=Kateus
TTITLE2=Ylpeys
TTITLE3=Ahneus
TTITLE4=Mässäily (feat. OG Ikonen and Shaka)
TTITLE5=Laiskuus
TTITLE6=Apatia
TTITLE7=Haureus
TTITLE8=Himo (feat. Shaka)
TTITLE9=Viha
TTITLE10=Rippituoli (feat. Julma-Henri, Shaka, OG Ikonen, Adebizi, Jon
TTITLE10=tti, Petos, Notkea Rotta, Emeto and Aisti)
TTITLE11=Synninpäästö
EXTD=
EXTT0=
EXTT1=
EXTT2=
EXTT3=
EXTT4=
EXTT5=
EXTT6=
EXTT7=
EXTT8=
EXTT9=
EXTT10=
EXTT11=
PLAYORDER=
